# Blender v2.93.6 OBJ File: 'Characters.blend'
# www.blender.org
mtllib Cat Head.mtl
o Cat_head_Sphere
v -0.234475 0.482951 0.000000
v -0.576782 0.278832 0.000000
v -0.666011 -0.000000 0.000000
v -0.333005 -0.482951 0.000000
v -0.288391 0.482951 -0.145963
v -0.499508 0.278832 -0.252816
v -0.576782 -0.000000 -0.291927
v -0.499508 -0.278832 -0.252816
v -0.288391 -0.482951 -0.145963
v -0.166503 0.482951 -0.252816
v -0.288391 0.278832 -0.437890
v -0.443989 -0.000000 -0.505632
v -0.384505 -0.278832 -0.437890
v -0.166503 -0.482951 -0.252816
v 0.000000 0.482951 -0.291927
v 0.000000 0.278832 -0.505632
v 0.000000 -0.000000 -0.583853
v 0.000000 -0.482951 -0.291927
v 0.166503 0.482951 -0.252816
v 0.288391 0.278832 -0.437890
v 0.443989 -0.000000 -0.505632
v 0.384505 -0.278832 -0.437890
v 0.166503 -0.482951 -0.252816
v 0.288391 0.482951 -0.145963
v 0.499508 0.278832 -0.252816
v 0.576782 -0.000000 -0.291927
v 0.499508 -0.278832 -0.252816
v 0.288391 -0.482951 -0.145963
v 0.000000 0.557664 -0.000000
v 0.234475 0.482951 -0.000000
v 0.576782 0.278832 -0.000000
v 0.666011 -0.000000 -0.000000
v 0.576782 -0.278832 -0.000000
v 0.333005 -0.482951 -0.000000
v 0.203062 0.482951 0.145963
v 0.499508 0.278832 0.252816
v 0.576782 -0.000000 0.291927
v 0.499508 -0.278832 0.252816
v 0.288391 -0.482951 0.145963
v 0.000000 -0.557664 -0.000000
v 0.166503 0.482951 0.252816
v 0.288391 0.278832 0.437890
v 0.333005 -0.000000 0.505632
v 0.288391 -0.278832 0.437890
v 0.166503 -0.482951 0.252816
v 0.000000 0.482951 0.291927
v 0.000000 0.278832 0.505632
v 0.000000 -0.000000 0.583853
v 0.000000 -0.278832 0.505632
v 0.000000 -0.482951 0.291927
v -0.166503 0.482951 0.252816
v -0.288391 0.278832 0.437890
v -0.333005 -0.000000 0.505632
v -0.288391 -0.278832 0.437890
v -0.166503 -0.482951 0.252816
v -0.203062 0.482951 0.145963
v -0.499508 0.278832 0.252816
v -0.576782 -0.000000 0.291927
v -0.499508 -0.278832 0.252816
v -0.288391 -0.482951 0.145963
v -0.576782 -0.278832 -0.000000
v -0.333005 0.701824 0.068992
v -0.576782 0.629610 0.068992
v 0.333005 0.701824 0.068992
v 0.576782 0.629610 0.068992
v -0.405629 0.380891 0.000000
v -0.393950 0.380891 -0.199390
v -0.227447 0.380891 -0.345353
v 0.000000 0.380891 -0.398779
v 0.227447 0.380891 -0.345353
v 0.393950 0.380891 -0.199390
v 0.405629 0.380891 -0.000000
v 0.227447 0.380891 0.345353
v 0.000000 0.380891 0.398779
v -0.227447 0.380891 0.345353
v -0.454894 0.771931 0.068992
v 0.454894 0.771931 0.068992
v -0.333005 -0.036681 -0.613620
v -0.288391 -0.278832 -0.659149
v 0.000000 0.002247 -0.790127
v 0.000000 -0.278832 -0.726890
v 0.333005 -0.036681 -0.613620
v 0.288391 -0.278832 -0.659149
vt 0.708333 0.000000
vt 0.750000 0.166667
vt 0.666667 0.166667
vt 0.750000 0.333333
vt 0.750000 0.500000
vt 0.666667 0.500000
vt 0.666667 0.333333
vt 0.750000 0.750000
vt 0.750000 0.833333
vt 0.666667 0.833333
vt 0.666667 0.750000
vt 0.750000 0.666667
vt 0.666667 0.666667
vt 0.708333 1.000000
vt 0.583333 0.500000
vt 0.583333 0.333333
vt 0.583333 0.833333
vt 0.583333 0.750000
vt 0.583333 0.166667
vt 0.583333 0.666667
vt 0.625000 1.000000
vt 0.625000 0.000000
vt 0.500000 0.833333
vt 0.500000 0.750000
vt 0.583333 0.500000
vt 0.583333 0.333333
vt 0.500000 0.666667
vt 0.500000 0.500000
vt 0.541667 1.000000
vt 0.541667 0.000000
vt 0.500000 0.166667
vt 0.416667 0.500000
vt 0.416667 0.500000
vt 0.500000 0.500000
vt 0.416667 0.666667
vt 0.458333 1.000000
vt 0.416667 0.833333
vt 0.458333 0.000000
vt 0.416667 0.166667
vt 0.416667 0.750000
vt 0.416667 0.333333
vt 0.333333 0.333333
vt 0.333333 0.166667
vt 0.333333 0.666667
vt 0.333333 0.500000
vt 0.375000 1.000000
vt 0.333333 0.833333
vt 0.375000 0.000000
vt 0.333333 0.750000
vt 0.250000 0.333333
vt 0.250000 0.166667
vt 0.250000 0.666667
vt 0.250000 0.500000
vt 0.291667 1.000000
vt 0.250000 0.833333
vt 0.291667 0.000000
vt 0.250000 0.750000
vt 0.166667 0.333333
vt 0.166667 0.166667
vt 0.166667 0.666667
vt 0.166667 0.500000
vt 0.208333 1.000000
vt 0.166667 0.833333
vt 0.208333 0.000000
vt 0.250000 0.833333
vt 0.083333 0.666667
vt 0.083333 0.500000
vt 0.125000 1.000000
vt 0.083333 0.833333
vt 0.125000 0.000000
vt 0.083333 0.166667
vt 0.083333 0.333333
vt 0.166667 0.750000
vt 0.041667 1.000000
vt 0.000000 0.833333
vt 0.041667 0.000000
vt 0.000000 0.166667
vt 0.000000 0.500000
vt 0.000000 0.333333
vt 0.083333 0.750000
vt 0.000000 0.750000
vt 0.000000 0.666667
vt 0.958333 0.000000
vt 1.000000 0.166667
vt 0.916667 0.166667
vt 1.000000 0.333333
vt 1.000000 0.500000
vt 0.916667 0.500000
vt 0.916667 0.333333
vt 1.000000 0.750000
vt 1.000000 0.833333
vt 0.916667 0.833333
vt 0.916667 0.750000
vt 1.000000 0.666667
vt 0.916667 0.666667
vt 0.958333 1.000000
vt 0.875000 0.000000
vt 0.833333 0.166667
vt 0.833333 0.500000
vt 0.833333 0.333333
vt 0.833333 0.833333
vt 0.833333 0.666667
vt 0.875000 1.000000
vt 0.791667 0.000000
vt 0.833333 0.833333
vt 0.791667 1.000000
vt 0.750000 0.666667
vt 0.750000 0.750000
vt 0.166667 0.666667
vt 0.833333 0.750000
vt 0.833333 0.750000
vt 0.250000 0.750000
vt 0.166667 0.750000
vt 0.166667 0.833333
vt 0.250000 0.666667
vt 0.833333 0.666667
vt 0.750000 0.833333
vt 0.500000 0.333333
vt 0.416667 0.333333
vn 0.0000 -1.0000 0.0000
vn -0.4772 -0.8787 0.0000
vn -0.4123 -0.8819 -0.2284
vn -0.8449 -0.5349 0.0000
vn -1.0000 0.0000 0.0000
vn -0.8940 0.0293 -0.4470
vn -0.7533 -0.5486 -0.3627
vn -0.4388 0.6331 -0.6377
vn -0.1095 0.9533 -0.2813
vn -0.4509 0.8776 -0.1629
vn -0.5354 0.7951 -0.2847
vn -0.9183 0.3728 -0.1330
vn -0.7137 0.5741 -0.4012
vn 0.0000 0.9999 0.0110
vn -0.7144 0.1763 -0.6772
vn -0.7093 -0.5599 -0.4284
vn -0.2269 0.8635 -0.4505
vn -0.3089 0.7335 -0.6055
vn -0.2368 -0.9179 -0.3183
vn -0.3767 0.5455 -0.7486
vn 0.0000 0.8587 -0.5125
vn 0.0000 0.7231 -0.6907
vn -0.5805 0.5054 -0.6384
vn -0.5115 -0.5156 -0.6874
vn 0.0000 0.5134 -0.8581
vn 0.0000 0.7920 -0.6105
vn 0.0000 -0.9367 -0.3500
vn 0.7144 0.1763 -0.6772
vn 0.5805 0.5054 -0.6384
vn 0.0000 0.5680 -0.8230
vn 0.3767 0.5455 -0.7486
vn 0.2269 0.8635 -0.4505
vn 0.2368 -0.9179 -0.3183
vn 0.3089 0.7335 -0.6055
vn 0.7093 -0.5599 -0.4284
vn 0.7533 -0.5486 -0.3627
vn 0.4123 -0.8819 -0.2284
vn 0.7137 0.5741 -0.4012
vn 0.8940 0.0293 -0.4470
vn 0.4509 0.8776 -0.1629
vn 0.5354 0.7951 -0.2847
vn 0.8449 -0.5349 0.0000
vn 0.4772 -0.8787 0.0000
vn 0.9183 0.3728 -0.1330
vn 1.0000 0.0000 0.0000
vn 0.1095 0.9533 -0.2813
vn 0.4388 0.6331 -0.6377
vn 0.7147 -0.5255 0.4615
vn 0.4060 -0.8735 0.2687
vn 0.7428 0.3028 0.5971
vn 0.8426 0.0000 0.5386
vn -0.1705 0.9549 0.2429
vn -0.5784 0.7326 -0.3587
vn 0.3950 0.5073 0.7659
vn 0.4614 0.0000 0.8872
vn 0.3745 0.8442 0.3834
vn 0.2269 -0.8635 0.4505
vn 0.3950 -0.5073 0.7659
vn 0.2352 0.6876 0.6868
vn 0.0000 0.8587 0.5125
vn 0.0000 -0.8587 0.5125
vn 0.0000 0.0000 1.0000
vn 0.0000 -0.4986 0.8668
vn 0.0000 0.7231 0.6907
vn 0.0000 0.4986 0.8668
vn -0.2269 -0.8635 0.4505
vn -0.4614 0.0000 0.8872
vn -0.3950 -0.5073 0.7659
vn -0.3745 0.8442 0.3834
vn -0.2352 0.6876 0.6868
vn -0.3950 0.5073 0.7659
vn -0.4060 -0.8735 0.2687
vn -0.8426 0.0000 0.5386
vn -0.7147 -0.5255 0.4615
vn 0.1705 0.9549 0.2429
vn -0.7428 0.3028 0.5971
vn 0.5784 0.7326 -0.3587
vn -0.8500 0.5025 -0.1578
vn -0.1934 0.9588 -0.2078
vn 0.8500 0.5025 -0.1578
vn 0.1934 0.9588 -0.2078
vn 0.0000 -0.5375 -0.8433
vn 0.5115 -0.5156 -0.6874
usemtl None
s 1
f 40/1/1 4/2/2 9/3/3
f 61/4/4 3/5/5 7/6/6 8/7/7
f 66/8/8 1/9/9 5/10/10 67/11/11
f 4/2/2 61/4/4 8/7/7 9/3/3
f 3/5/5 2/12/12 6/13/13 7/6/6
f 1/9/9 29/14/14 5/10/10
f 8/7/7 7/6/6 12/15/15 13/16/16
f 67/11/11 5/10/10 10/17/17 68/18/18
f 9/3/3 8/7/7 13/16/16 14/19/19
f 7/6/6 6/13/13 11/20/20 12/15/15
f 5/10/10 29/21/14 10/17/17
f 40/22/1 9/3/3 14/19/19
f 68/18/18 10/17/17 15/23/21 69/24/22
f 13/16/16 12/15/15 78/25/23 79/26/24
f 12/15/15 11/20/20 16/27/25 17/28/26
f 10/17/17 29/29/14 15/23/21
f 40/30/1 14/19/19 18/31/27
f 17/28/26 21/32/28 82/33/29 80/34/30
f 17/28/26 16/27/25 20/35/31 21/32/28
f 15/23/21 29/36/14 19/37/32
f 40/38/1 18/31/27 23/39/33
f 12/15/15 17/28/26 80/34/30 78/25/23
f 69/24/22 15/23/21 19/37/32 70/40/34
f 23/39/33 22/41/35 27/42/36 28/43/37
f 21/32/28 20/35/31 25/44/38 26/45/39
f 19/37/32 29/46/14 24/47/40
f 40/48/1 23/39/33 28/43/37
f 22/41/35 21/32/28 26/45/39 27/42/36
f 70/40/34 19/37/32 24/47/40 71/49/41
f 28/43/37 27/42/36 33/50/42 34/51/43
f 26/45/39 25/44/38 31/52/44 32/53/45
f 24/47/40 29/54/14 30/55/46
f 40/56/1 28/43/37 34/51/43
f 27/42/36 26/45/39 32/53/45 33/50/42
f 71/49/41 24/47/40 30/55/46 72/57/47
f 34/51/43 33/50/42 38/58/48 39/59/49
f 32/53/45 31/52/44 36/60/50 37/61/51
f 30/55/46 29/62/14 35/63/52
f 40/64/1 34/51/43 39/59/49
f 33/50/42 32/53/45 37/61/51 38/58/48
f 30/55/46 35/63/52 64/65/53
f 37/61/51 36/60/50 42/66/54 43/67/55
f 35/63/52 29/68/14 41/69/56
f 40/70/1 39/59/49 45/71/57
f 38/58/48 37/61/51 43/67/55 44/72/58
f 73/73/59 35/63/52 41/69/56
f 39/59/49 38/58/48 44/72/58 45/71/57
f 41/69/56 29/74/14 46/75/60
f 40/76/1 45/71/57 50/77/61
f 44/72/58 43/67/55 48/78/62 49/79/63
f 73/80/59 41/69/56 46/75/60 74/81/64
f 45/71/57 44/72/58 49/79/63 50/77/61
f 43/67/55 42/66/54 47/82/65 48/78/62
f 40/83/1 50/84/61 55/85/66
f 49/86/63 48/87/62 53/88/67 54/89/68
f 74/90/64 46/91/60 51/92/69 75/93/70
f 50/84/61 49/86/63 54/89/68 55/85/66
f 48/87/62 47/94/65 52/95/71 53/88/67
f 46/91/60 29/96/14 51/92/69
f 40/97/1 55/85/66 60/98/72
f 54/89/68 53/88/67 58/99/73 59/100/74
f 75/93/70 51/92/69 56/101/75
f 55/85/66 54/89/68 59/100/74 60/98/72
f 53/88/67 52/95/71 57/102/76 58/99/73
f 51/92/69 29/103/14 56/101/75
f 40/104/1 60/98/72 4/2/2
f 59/100/74 58/99/73 3/5/5 61/4/4
f 56/101/75 1/9/9 62/105/77
f 60/98/72 59/100/74 61/4/4 4/2/2
f 58/99/73 57/102/76 2/12/12 3/5/5
f 56/101/75 29/106/14 1/9/9
f 66/8/8 2/12/12 63/107/78 76/108/79
f 2/12/12 57/102/76 63/107/78
f 36/60/50 31/52/44 65/109/80
f 75/110/70 56/101/75 62/105/77 76/111/79
f 72/57/47 30/55/46 64/65/53 77/112/81
f 73/73/59 36/60/50 65/109/80 77/113/81
f 35/63/52 73/73/59 77/113/81 64/114/53
f 31/52/44 72/57/47 77/112/81 65/115/80
f 57/102/76 75/110/70 76/111/79 63/116/78
f 1/9/9 66/8/8 76/108/79 62/117/77
f 52/95/71 75/110/70 57/102/76
f 47/94/65 74/90/64 75/93/70 52/95/71
f 42/66/54 73/80/59 74/81/64 47/82/65
f 36/60/50 73/80/59 42/66/54
f 25/44/38 71/49/41 72/57/47 31/52/44
f 20/35/31 70/40/34 71/49/41 25/44/38
f 16/27/25 69/24/22 70/40/34 20/35/31
f 11/20/20 68/18/18 69/24/22 16/27/25
f 6/13/13 67/11/11 68/18/18 11/20/20
f 2/12/12 66/8/8 67/11/11 6/13/13
f 14/19/19 79/26/24 81/118/82 18/31/27
f 79/26/24 78/25/23 80/34/30 81/118/82
f 18/31/27 81/118/82 83/119/83 23/39/33
f 81/118/82 80/34/30 82/33/29 83/119/83
f 21/32/28 22/41/35 83/119/83 82/33/29
f 14/19/19 13/16/16 79/26/24
f 22/41/35 23/39/33 83/119/83
