# Blender v2.93.6 OBJ File: 'Characters.blend'
# www.blender.org
mtllib Rat Head.mtl
o Rat_Head_Sphere.002
v -0.251542 0.482968 0.000000
v -0.472542 0.278841 0.000000
v -0.503083 -0.000000 0.000000
v -0.251542 -0.482968 0.000000
v -0.217842 0.482968 -0.163009
v -0.377313 0.278841 -0.282339
v -0.435683 -0.000000 -0.326017
v -0.377313 -0.278841 -0.282339
v -0.217842 -0.482968 -0.163009
v -0.125771 0.482968 -0.282339
v -0.217842 0.373008 -0.489026
v -0.217842 -0.411181 -0.489026
v -0.125771 -0.482968 -0.282339
v 0.000000 0.482968 -0.326017
v 0.000000 0.373008 -0.564678
v 0.000000 -0.411181 -0.564678
v 0.000000 -0.482968 -0.326017
v 0.125771 0.482968 -0.282339
v 0.217842 0.373008 -0.489026
v 0.217842 -0.411181 -0.489026
v 0.125771 -0.482968 -0.282339
v 0.217842 0.482968 -0.163009
v 0.377313 0.278841 -0.282339
v 0.435683 -0.000000 -0.326017
v 0.377313 -0.278841 -0.282339
v 0.217842 -0.482968 -0.163009
v 0.000000 0.557683 0.000000
v 0.251542 0.482968 -0.000000
v 0.472542 0.278841 -0.000000
v 0.503083 -0.000000 -0.000000
v 0.435683 -0.278841 -0.000000
v 0.251542 -0.482968 -0.000000
v 0.217842 0.482968 0.163009
v 0.409234 0.278841 0.282339
v 0.435683 -0.000000 0.326017
v 0.377313 -0.278841 0.282339
v 0.217842 -0.482968 0.163009
v 0.000000 -0.557683 -0.000000
v 0.125771 0.482968 0.282339
v 0.217842 0.278841 0.489026
v 0.251542 -0.000000 0.564678
v 0.217842 -0.278841 0.489026
v 0.125771 -0.482968 0.282339
v 0.000000 0.482968 0.326017
v 0.000000 0.278841 0.564678
v 0.000000 -0.000000 0.652034
v 0.000000 -0.278841 0.564678
v 0.000000 -0.482968 0.326017
v -0.125771 0.482968 0.282339
v -0.217841 0.278841 0.489026
v -0.251542 -0.000000 0.564678
v -0.217841 -0.278841 0.489026
v -0.125771 -0.482968 0.282339
v -0.217841 0.482968 0.163009
v -0.409233 0.278841 0.282339
v -0.435683 -0.000000 0.326017
v -0.377312 -0.278841 0.282339
v -0.217842 -0.482968 0.163009
v -0.435683 -0.278841 -0.000000
v -0.300100 0.677705 0.051728
v -0.677337 0.434528 0.051728
v 0.300100 0.677705 0.051728
v 0.677337 0.434528 0.051728
v -0.294349 0.207026 -0.720446
v -0.294349 -0.214937 -0.720446
v -0.169943 0.180606 -1.015617
v -0.169943 -0.315071 -0.857292
v -0.362042 0.380904 0.000000
v -0.297577 0.380904 -0.222674
v -0.171806 0.424002 -0.385682
v 0.000000 0.424002 -0.445348
v 0.171806 0.424002 -0.385682
v 0.297577 0.380904 -0.222674
v 0.362042 0.380904 -0.000000
v 0.313538 0.380904 0.222674
v 0.171806 0.380904 0.385682
v 0.000000 0.380904 0.445348
v -0.171806 0.380904 0.385682
v -0.313537 0.380904 0.222674
v -0.548322 0.674605 0.051728
v 0.548322 0.674605 0.051728
v -0.339885 -0.003956 -0.764124
v -0.196233 -0.003956 -1.002785
v 0.000000 0.180606 -1.091270
v 0.000000 -0.003956 -1.090141
v 0.000000 -0.315071 -0.932944
v 0.169943 0.180606 -1.015617
v 0.196233 -0.003956 -1.002785
v 0.169943 -0.315071 -0.857292
v 0.294349 0.207026 -0.720446
v 0.339885 -0.003956 -0.764124
v 0.294349 -0.214937 -0.720446
vt 0.750000 0.166667
vt 0.750000 0.333333
vt 0.666667 0.333333
vt 0.666667 0.166667
vt 0.750000 0.500000
vt 0.750000 0.666667
vt 0.666667 0.666667
vt 0.666667 0.500000
vt 0.750000 0.833333
vt 0.708333 1.000000
vt 0.666667 0.833333
vt 0.708333 0.000000
vt 0.750000 0.750000
vt 0.666667 0.750000
vt 0.583333 0.333333
vt 0.583333 0.166667
vt 0.333333 0.666667
vt 0.333333 0.500000
vt 0.333333 0.500000
vt 0.333333 0.666667
vt 0.625000 1.000000
vt 0.583333 0.833333
vt 0.625000 0.000000
vt 0.666667 0.500000
vt 0.666667 0.333333
vt 0.583333 0.750000
vt 0.583333 0.666667
vt 0.500000 0.666667
vt 0.500000 0.666667
vt 0.583333 0.666667
vt 0.541667 1.000000
vt 0.500000 0.833333
vt 0.541667 0.000000
vt 0.500000 0.166667
vt 0.416667 0.333333
vt 0.500000 0.333333
vt 0.500000 0.333333
vt 0.416667 0.333333
vt 0.500000 0.750000
vt 0.458333 1.000000
vt 0.416667 0.833333
vt 0.458333 0.000000
vt 0.416667 0.166667
vt 0.666667 0.666667
vt 0.416667 0.750000
vt 0.583333 0.333333
vt 0.375000 0.000000
vt 0.333333 0.166667
vt 0.416667 0.666667
vt 0.416667 0.666667
vt 0.333333 0.833333
vt 0.333333 0.750000
vt 0.333333 0.333333
vt 0.375000 1.000000
vt 0.291667 0.000000
vt 0.250000 0.166667
vt 0.250000 0.500000
vt 0.250000 0.333333
vt 0.250000 0.833333
vt 0.250000 0.750000
vt 0.250000 0.666667
vt 0.291667 1.000000
vt 0.208333 0.000000
vt 0.166667 0.166667
vt 0.166667 0.500000
vt 0.166667 0.333333
vt 0.833333 0.666667
vt 0.750000 0.666667
vt 0.166667 0.666667
vt 0.208333 1.000000
vt 0.166667 0.833333
vt 0.083333 0.500000
vt 0.083333 0.333333
vt 0.166667 0.750000
vt 0.083333 0.833333
vt 0.083333 0.750000
vt 0.083333 0.166667
vt 0.083333 0.666667
vt 0.125000 1.000000
vt 0.125000 0.000000
vt 0.000000 0.833333
vt 0.000000 0.750000
vt 0.000000 0.333333
vt 0.000000 0.166667
vt 0.000000 0.666667
vt 0.000000 0.500000
vt 0.041667 1.000000
vt 0.041667 0.000000
vt 1.000000 0.166667
vt 1.000000 0.333333
vt 0.916667 0.333333
vt 0.916667 0.166667
vt 1.000000 0.500000
vt 1.000000 0.666667
vt 0.916667 0.666667
vt 0.916667 0.500000
vt 1.000000 0.833333
vt 0.958333 1.000000
vt 0.916667 0.833333
vt 0.958333 0.000000
vt 1.000000 0.750000
vt 0.916667 0.750000
vt 0.833333 0.333333
vt 0.833333 0.166667
vt 0.833333 0.500000
vt 0.875000 1.000000
vt 0.833333 0.833333
vt 0.875000 0.000000
vt 0.833333 0.750000
vt 0.791667 1.000000
vt 0.791667 0.000000
vt 0.750000 0.750000
vt 0.583333 0.500000
vt 0.500000 0.500000
vt 0.166667 0.666667
vt 0.833333 0.833333
vt 0.833333 0.750000
vt 0.250000 0.833333
vt 0.250000 0.750000
vt 0.166667 0.750000
vt 0.166667 0.833333
vt 0.250000 0.666667
vt 0.833333 0.666667
vt 0.750000 0.833333
vt 0.416667 0.500000
vt 0.333333 0.333333
vn -0.5577 -0.8300 0.0000
vn -0.8910 -0.4541 0.0000
vn -0.8514 -0.4859 -0.1976
vn -0.5063 -0.8498 -0.1464
vn -0.9990 -0.0436 -0.0120
vn -0.9376 0.0586 -0.3428
vn -0.8327 0.4977 -0.2426
vn -0.9745 -0.0132 -0.2240
vn -0.1493 0.8618 -0.4848
vn 0.0000 1.0000 0.0000
vn -0.4767 0.8575 -0.1934
vn 0.0000 -1.0000 0.0000
vn -0.4796 0.5065 -0.7165
vn -0.6461 0.7277 -0.2300
vn -0.4873 -0.8347 -0.2565
vn -0.2933 -0.9306 -0.2189
vn 0.8327 0.4977 -0.2426
vn 0.9745 -0.0132 -0.2240
vn 0.9295 -0.0286 -0.3676
vn 0.8301 0.4632 -0.3105
vn -0.2851 0.9073 -0.3088
vn -0.9295 -0.0286 -0.3676
vn -0.8590 -0.3954 -0.3252
vn -0.3884 0.8546 -0.3446
vn -0.4480 0.8358 -0.3173
vn 0.0000 0.9304 -0.3665
vn 0.0000 0.5083 -0.8612
vn -0.5473 0.5227 -0.6536
vn 0.0000 0.9340 -0.3571
vn 0.0000 -0.9649 -0.2625
vn 0.4873 -0.8347 -0.2565
vn 0.0000 -0.9627 -0.2704
vn 0.0000 -0.7265 -0.6872
vn 0.5022 -0.6936 -0.5164
vn 0.0000 0.9106 -0.4133
vn 0.2851 0.9073 -0.3088
vn 0.2933 -0.9306 -0.2189
vn -0.8301 0.4632 -0.3105
vn 0.3884 0.8546 -0.3446
vn -0.5022 -0.6936 -0.5164
vn 0.5063 -0.8498 -0.1464
vn 0.4480 0.8358 -0.3173
vn 0.5473 0.5227 -0.6536
vn 0.4767 0.8575 -0.1934
vn 0.6461 0.7277 -0.2300
vn 0.8514 -0.4859 -0.1976
vn 0.5577 -0.8300 0.0000
vn 0.9990 -0.0436 -0.0120
vn 0.8910 -0.4541 0.0000
vn 0.1493 0.8618 -0.4848
vn 0.4796 0.5065 -0.7165
vn 0.9376 0.0586 -0.3428
vn 0.4964 -0.8397 0.2199
vn 0.8980 -0.0370 0.4383
vn 0.8009 -0.4705 0.3702
vn -0.7715 0.2633 0.5792
vn -0.9835 0.0736 -0.1650
vn 0.7715 0.2633 0.5791
vn 0.0996 0.8823 0.4600
vn 0.5681 -0.0098 0.8229
vn 0.5028 -0.5064 0.7005
vn 0.3847 0.6082 0.6943
vn 0.2937 0.8653 0.4061
vn 0.3761 0.7439 0.5523
vn 0.3060 -0.8609 0.4064
vn 0.4844 0.5042 0.7149
vn 0.0000 0.8727 0.4882
vn 0.0000 0.7599 0.6500
vn 0.0000 -0.5257 0.8506
vn 0.0000 -0.8727 0.4882
vn 0.0000 0.5257 0.8506
vn 0.0000 0.0000 1.0000
vn -0.5028 -0.5064 0.7005
vn -0.3060 -0.8609 0.4064
vn -0.4844 0.5042 0.7149
vn -0.5681 -0.0098 0.8229
vn -0.2937 0.8653 0.4061
vn -0.3761 0.7439 0.5523
vn -0.8009 -0.4705 0.3702
vn -0.4964 -0.8397 0.2199
vn -0.8980 -0.0370 0.4383
vn -0.0996 0.8823 0.4600
vn -0.3847 0.6082 0.6943
vn -0.4499 0.8845 -0.1235
vn -0.6659 -0.1344 -0.7338
vn 0.0000 -0.2223 -0.9750
vn 0.9835 0.0736 -0.1650
vn 0.3706 0.9159 -0.1544
vn -0.3706 0.9159 -0.1544
vn 0.4499 0.8845 -0.1235
vn 0.6659 -0.1344 -0.7338
vn 0.8590 -0.3954 -0.3252
usemtl None
s 1
f 4/1/1 59/2/2 8/3/3 9/4/4
f 3/5/5 2/6/6 6/7/7 7/8/8
f 1/9/9 27/10/10 5/11/11
f 38/12/12 4/1/1 9/4/4
f 59/2/2 3/5/5 7/8/8 8/3/3
f 68/13/13 1/9/9 5/11/11 69/14/14
f 9/4/4 8/3/3 12/15/15 13/16/16
f 23/17/17 24/18/18 91/19/19 90/20/20
f 5/11/11 27/21/10 10/22/21
f 38/23/12 9/4/4 13/16/16
f 8/3/3 7/8/8 82/24/22 65/25/23
f 69/14/14 5/11/11 10/22/21 70/26/24
f 11/27/25 15/28/26 84/29/27 66/30/28
f 10/22/21 27/31/10 14/32/29
f 38/33/12 13/16/16 17/34/30
f 20/35/31 16/36/32 86/37/33 89/38/34
f 70/26/24 10/22/21 14/32/29 71/39/35
f 13/16/16 12/15/15 16/36/32 17/34/30
f 14/32/29 27/40/10 18/41/36
f 38/42/12 17/34/30 21/43/37
f 6/7/7 11/27/25 66/30/28 64/44/38
f 71/39/35 14/32/29 18/41/36 72/45/39
f 17/34/30 16/36/32 20/35/31 21/43/37
f 16/36/32 12/15/15 67/46/40 86/37/33
f 38/47/12 21/43/37 26/48/41
f 19/49/42 23/17/17 90/20/20 87/50/43
f 72/45/39 18/41/36 22/51/44 73/52/45
f 21/43/37 20/35/31 25/53/46 26/48/41
f 7/8/8 6/7/7 64/44/38 82/24/22
f 18/41/36 27/54/10 22/51/44
f 38/55/12 26/48/41 32/56/47
f 25/53/46 24/18/18 30/57/48 31/58/49
f 73/52/45 22/51/44 28/59/50 74/60/51
f 26/48/41 25/53/46 31/58/49 32/56/47
f 24/18/18 23/17/17 29/61/52 30/57/48
f 22/51/44 27/62/10 28/59/50
f 38/63/12 32/56/47 37/64/53
f 31/58/49 30/57/48 35/65/54 36/66/55
f 2/6/6 55/67/56 61/68/57
f 32/56/47 31/58/49 36/66/55 37/64/53
f 30/57/48 29/61/52 34/69/58 35/65/54
f 28/59/50 27/70/10 33/71/59
f 36/66/55 35/65/54 41/72/60 42/73/61
f 75/74/62 33/71/59 39/75/63 76/76/64
f 37/64/53 36/66/55 42/73/61 43/77/65
f 35/65/54 34/69/58 40/78/66 41/72/60
f 33/71/59 27/79/10 39/75/63
f 38/80/12 37/64/53 43/77/65
f 76/76/64 39/75/63 44/81/67 77/82/68
f 43/77/65 42/73/61 47/83/69 48/84/70
f 41/72/60 40/78/66 45/85/71 46/86/72
f 39/75/63 27/87/10 44/81/67
f 38/88/12 43/77/65 48/84/70
f 42/73/61 41/72/60 46/86/72 47/83/69
f 48/89/70 47/90/69 52/91/73 53/92/74
f 46/93/72 45/94/71 50/95/75 51/96/76
f 44/97/67 27/98/10 49/99/77
f 38/100/12 48/89/70 53/92/74
f 47/90/69 46/93/72 51/96/76 52/91/73
f 77/101/68 44/97/67 49/99/77 78/102/78
f 53/92/74 52/91/73 57/103/79 58/104/80
f 51/96/76 50/95/75 55/67/56 56/105/81
f 49/99/77 27/106/10 54/107/82
f 38/108/12 53/92/74 58/104/80
f 52/91/73 51/96/76 56/105/81 57/103/79
f 78/102/78 49/99/77 54/107/82 79/109/83
f 58/104/80 57/103/79 59/2/2 4/1/1
f 56/105/81 55/67/56 2/6/6 3/5/5
f 54/107/82 27/110/10 1/9/9
f 38/111/12 58/104/80 4/1/1
f 57/103/79 56/105/81 3/5/5 59/2/2
f 68/13/13 2/6/6 61/68/57 80/112/84
f 82/24/22 64/44/38 66/30/28 83/113/85
f 83/113/85 66/30/28 84/29/27 85/114/86
f 34/69/58 29/61/52 63/115/87
f 79/109/83 54/107/82 60/116/88 80/117/84
f 74/60/51 28/59/50 62/118/89 81/119/90
f 75/74/62 34/69/58 63/115/87 81/120/90
f 54/107/82 1/9/9 60/116/88
f 28/59/50 33/71/59 62/118/89
f 33/71/59 75/74/62 81/120/90 62/121/89
f 29/61/52 74/60/51 81/119/90 63/122/87
f 55/67/56 79/109/83 80/117/84 61/123/57
f 67/46/40 83/113/85 85/114/86 86/37/33
f 65/25/23 82/24/22 83/113/85 67/46/40
f 1/9/9 68/13/13 80/112/84 60/124/88
f 50/95/75 78/102/78 79/109/83 55/67/56
f 45/94/71 77/101/68 78/102/78 50/95/75
f 40/78/66 76/76/64 77/82/68 45/85/71
f 34/69/58 75/74/62 76/76/64 40/78/66
f 23/17/17 73/52/45 74/60/51 29/61/52
f 19/49/42 72/45/39 73/52/45 23/17/17
f 15/28/26 71/39/35 72/45/39 19/49/42
f 11/27/25 70/26/24 71/39/35 15/28/26
f 6/7/7 69/14/14 70/26/24 11/27/25
f 2/6/6 68/13/13 69/14/14 6/7/7
f 86/37/33 85/114/86 88/125/91 89/38/34
f 85/114/86 84/29/27 87/50/43 88/125/91
f 89/38/34 88/125/91 91/19/19 92/126/92
f 88/125/91 87/50/43 90/20/20 91/19/19
f 25/53/46 20/35/31 89/38/34 92/126/92
f 12/15/15 8/3/3 65/25/23 67/46/40
f 24/18/18 25/53/46 92/126/92 91/19/19
f 15/28/26 19/49/42 87/50/43 84/29/27
