# Blender v2.93.6 OBJ File: 'Packages.blend'
# www.blender.org
mtllib Milk Bottle.mtl
o Milk_Bottle_Cylinder.003
v -0.000000 -1.000000 -0.704739
v -0.000000 1.000000 -0.704739
v 0.352370 -1.000000 -0.610322
v 0.352370 1.000000 -0.610322
v 0.610322 -1.000000 -0.352370
v 0.610322 1.000000 -0.352370
v 0.704739 -1.000000 0.000000
v 0.704739 1.000000 0.000000
v 0.610322 -1.000000 0.352370
v 0.610322 1.000000 0.352370
v 0.352370 -1.000000 0.610322
v 0.352370 1.000000 0.610322
v -0.000000 -1.000000 0.704739
v -0.000000 1.000000 0.704739
v -0.352370 -1.000000 0.610322
v -0.352370 1.000000 0.610322
v -0.610322 -1.000000 0.352370
v -0.610322 1.000000 0.352370
v -0.704739 -1.000000 -0.000000
v -0.704739 1.000000 -0.000000
v -0.610322 -1.000000 -0.352370
v -0.610322 1.000000 -0.352370
v -0.352370 -1.000000 -0.610322
v -0.352370 1.000000 -0.610322
v 0.158533 1.536505 -0.274587
v -0.000000 1.536505 -0.317066
v 0.274587 1.536505 -0.158533
v 0.317066 1.536505 0.000000
v 0.274587 1.536505 0.158533
v 0.158533 1.536505 0.274587
v -0.000000 1.536505 0.317066
v -0.158533 1.536505 0.274587
v -0.274587 1.536505 0.158533
v -0.317066 1.536505 0.000000
v -0.274587 1.536505 -0.158533
v -0.158533 1.536505 -0.274587
v 0.158533 1.911368 -0.274587
v 0.000000 1.911368 -0.317066
v 0.274587 1.911368 -0.158533
v 0.317066 1.911368 0.000000
v 0.274587 1.911368 0.158533
v 0.158533 1.911368 0.274587
v -0.000000 1.911368 0.317066
v -0.158533 1.911368 0.274587
v -0.274587 1.911368 0.158533
v -0.317066 1.911368 0.000000
v -0.274587 1.911368 -0.158533
v -0.158533 1.911368 -0.274587
v 0.247844 1.911368 -0.429278
v 0.000000 1.911368 -0.495687
v 0.429278 1.911368 -0.247843
v 0.495687 1.911368 0.000000
v 0.429278 1.911368 0.247844
v 0.247844 1.911368 0.429278
v -0.000000 1.911368 0.495687
v -0.247844 1.911368 0.429278
v -0.429278 1.911368 0.247844
v -0.495687 1.911368 -0.000000
v -0.429278 1.911368 -0.247843
v -0.247844 1.911368 -0.429278
v 0.247844 2.159337 -0.429278
v 0.000000 2.159337 -0.495687
v 0.429278 2.159337 -0.247843
v 0.495687 2.159337 0.000000
v 0.429278 2.159337 0.247844
v 0.247844 2.159337 0.429278
v -0.000000 2.159337 0.495687
v -0.247843 2.159337 0.429278
v -0.429278 2.159337 0.247844
v -0.495687 2.159337 -0.000000
v -0.429278 2.159337 -0.247843
v -0.247844 2.159337 -0.429278
v 0.142678 2.159337 -0.247125
v 0.000000 2.159337 -0.285355
v 0.247125 2.159337 -0.142678
v 0.285355 2.159337 0.000000
v 0.247125 2.159337 0.142678
v 0.142678 2.159337 0.247125
v 0.000000 2.159337 0.285355
v -0.142678 2.159337 0.247125
v -0.247125 2.159337 0.142678
v -0.285355 2.159337 0.000000
v -0.247125 2.159337 -0.142678
v -0.142678 2.159337 -0.247125
v 0.142678 2.016206 -0.247125
v -0.000000 2.016206 -0.285355
v 0.247125 2.016206 -0.142678
v 0.285355 2.016206 0.000000
v 0.247125 2.016206 0.142678
v 0.142678 2.016206 0.247125
v -0.000000 2.016206 0.285355
v -0.142678 2.016206 0.247125
v -0.247125 2.016206 0.142678
v -0.285355 2.016206 0.000000
v -0.247125 2.016206 -0.142678
v -0.142678 2.016206 -0.247125
vt 1.000000 0.500000
vt 1.000000 1.000000
vt 0.916667 1.000000
vt 0.916667 0.500000
vt 0.833333 1.000000
vt 0.833333 0.500000
vt 0.750000 1.000000
vt 0.750000 0.500000
vt 0.666667 1.000000
vt 0.666667 0.500000
vt 0.583333 1.000000
vt 0.583333 0.500000
vt 0.500000 1.000000
vt 0.500000 0.500000
vt 0.416667 1.000000
vt 0.416667 0.500000
vt 0.333333 1.000000
vt 0.333333 0.500000
vt 0.250000 1.000000
vt 0.250000 0.500000
vt 0.166667 1.000000
vt 0.166667 0.500000
vt 0.000000 1.000000
vt 0.083333 1.000000
vt 0.083333 1.000000
vt 0.000000 1.000000
vt 0.083333 0.500000
vt 0.000000 0.500000
vt 0.990000 0.250000
vt 0.870000 0.042154
vt 0.630000 0.042154
vt 0.833333 1.000000
vt 0.916667 1.000000
vt 0.916667 1.000000
vt 0.833333 1.000000
vt 1.000000 1.000000
vt 0.750000 1.000000
vt 0.166667 1.000000
vt 0.250000 1.000000
vt 0.333333 1.000000
vt 0.416667 1.000000
vt 0.500000 1.000000
vt 0.583333 1.000000
vt 0.666667 1.000000
vt 0.000000 1.000000
vt 0.083333 1.000000
vt 0.083333 1.000000
vt 0.000000 1.000000
vt 0.333333 1.000000
vt 0.250000 1.000000
vt 0.583333 1.000000
vt 0.500000 1.000000
vt 0.750000 1.000000
vt 0.166667 1.000000
vt 0.416667 1.000000
vt 0.666667 1.000000
vt 1.000000 1.000000
vt 0.583333 1.000000
vt 0.666667 1.000000
vt 0.666667 1.000000
vt 0.583333 1.000000
vt 0.916667 1.000000
vt 0.833333 1.000000
vt 0.333333 1.000000
vt 0.250000 1.000000
vt 0.500000 1.000000
vt 0.750000 1.000000
vt 0.166667 1.000000
vt 0.416667 1.000000
vt 1.000000 1.000000
vt 0.666667 1.000000
vt 0.583333 1.000000
vt 0.083333 1.000000
vt 0.000000 1.000000
vt 0.916667 1.000000
vt 0.833333 1.000000
vt 0.333333 1.000000
vt 0.250000 1.000000
vt 0.500000 1.000000
vt 0.750000 1.000000
vt 0.166667 1.000000
vt 0.416667 1.000000
vt 1.000000 1.000000
vt 0.333333 1.000000
vt 0.416667 1.000000
vt 0.416667 1.000000
vt 0.333333 1.000000
vt 0.083333 1.000000
vt 0.000000 1.000000
vt 0.916667 1.000000
vt 0.833333 1.000000
vt 0.250000 1.000000
vt 0.500000 1.000000
vt 0.750000 1.000000
vt 0.166667 1.000000
vt 1.000000 1.000000
vt 0.042154 0.130000
vt 0.250000 0.010000
vt 0.457846 0.370000
vt 0.666667 1.000000
vt 0.583333 1.000000
vt 0.083333 1.000000
vt 0.000000 1.000000
vt 0.916667 1.000000
vt 0.833333 1.000000
vt 0.250000 1.000000
vt 0.500000 1.000000
vt 0.750000 1.000000
vt 0.166667 1.000000
vt 1.000000 1.000000
vt 0.370000 0.457846
vt 0.250000 0.490000
vt 0.130000 0.457846
vt 0.042154 0.370000
vt 0.010000 0.250000
vt 0.130000 0.042154
vt 0.370000 0.042154
vt 0.457846 0.130000
vt 0.490000 0.250000
vt 0.630000 0.457846
vt 0.750000 0.490000
vt 0.870000 0.457846
vt 0.957846 0.370000
vt 0.957846 0.130000
vt 0.750000 0.010000
vt 0.542154 0.130000
vt 0.510000 0.250000
vt 0.542154 0.370000
vn 0.2588 0.0000 -0.9659
vn 0.7071 0.0000 -0.7071
vn 0.9659 0.0000 -0.2588
vn 0.9659 0.0000 0.2588
vn 0.7071 0.0000 0.7071
vn 0.2588 0.0000 0.9659
vn -0.2588 0.0000 0.9659
vn -0.7071 0.0000 0.7071
vn -0.9659 0.0000 0.2588
vn -0.9659 0.0000 -0.2588
vn -0.2122 0.5723 -0.7921
vn -0.7071 0.0000 -0.7071
vn -0.2588 0.0000 -0.9659
vn 0.0000 -1.0000 -0.0000
vn 0.2122 0.5723 -0.7921
vn 0.7921 0.5723 -0.2122
vn -0.5798 0.5723 -0.5798
vn 0.5798 0.5723 -0.5798
vn -0.7921 0.5723 -0.2122
vn -0.7921 0.5723 0.2122
vn -0.5798 0.5723 0.5798
vn -0.2122 0.5723 0.7921
vn 0.2122 0.5723 0.7921
vn 0.5798 0.5723 0.5798
vn 0.7921 0.5723 0.2122
vn 0.0000 1.0000 0.0000
usemtl None
s off
f 1/1/1 2/2/1 4/3/1 3/4/1
f 3/4/2 4/3/2 6/5/2 5/6/2
f 5/6/3 6/5/3 8/7/3 7/8/3
f 7/8/4 8/7/4 10/9/4 9/10/4
f 9/10/5 10/9/5 12/11/5 11/12/5
f 11/12/6 12/11/6 14/13/6 13/14/6
f 13/14/7 14/13/7 16/15/7 15/16/7
f 15/16/8 16/15/8 18/17/8 17/18/8
f 17/18/9 18/17/9 20/19/9 19/20/9
f 19/20/10 20/19/10 22/21/10 21/22/10
f 2/23/11 24/24/11 36/25/11 26/26/11
f 21/22/12 22/21/12 24/24/12 23/27/12
f 23/27/13 24/24/13 2/23/13 1/28/13
f 7/29/14 11/30/14 15/31/14
f 27/32/2 25/33/2 37/34/2 39/35/2
f 4/3/15 2/2/15 26/36/15 25/33/15
f 8/7/16 6/5/16 27/32/16 28/37/16
f 24/24/17 22/21/17 35/38/17 36/25/17
f 6/5/18 4/3/18 25/33/18 27/32/18
f 22/21/19 20/19/19 34/39/19 35/38/19
f 20/19/20 18/17/20 33/40/20 34/39/20
f 18/17/21 16/15/21 32/41/21 33/40/21
f 16/15/22 14/13/22 31/42/22 32/41/22
f 14/13/23 12/11/23 30/43/23 31/42/23
f 12/11/24 10/9/24 29/44/24 30/43/24
f 10/9/25 8/7/25 28/37/25 29/44/25
f 38/45/14 48/46/14 60/47/14 50/48/14
f 34/39/9 33/40/9 45/49/9 46/50/9
f 31/42/6 30/43/6 42/51/6 43/52/6
f 28/37/3 27/32/3 39/35/3 40/53/3
f 35/38/10 34/39/10 46/50/10 47/54/10
f 32/41/7 31/42/7 43/52/7 44/55/7
f 29/44/4 28/37/4 40/53/4 41/56/4
f 36/25/12 35/38/12 47/54/12 48/46/12
f 25/33/1 26/36/1 38/57/1 37/34/1
f 33/40/8 32/41/8 44/55/8 45/49/8
f 30/43/5 29/44/5 41/56/5 42/51/5
f 26/26/13 36/25/13 48/46/13 38/45/13
f 54/58/5 53/59/5 65/60/5 66/61/5
f 39/35/14 37/34/14 49/62/14 51/63/14
f 46/50/14 45/49/14 57/64/14 58/65/14
f 43/52/14 42/51/14 54/58/14 55/66/14
f 40/53/14 39/35/14 51/63/14 52/67/14
f 47/54/14 46/50/14 58/65/14 59/68/14
f 44/55/14 43/52/14 55/66/14 56/69/14
f 41/56/14 40/53/14 52/67/14 53/59/14
f 48/46/14 47/54/14 59/68/14 60/47/14
f 37/34/14 38/57/14 50/70/14 49/62/14
f 45/49/14 44/55/14 56/69/14 57/64/14
f 42/51/14 41/56/14 53/59/14 54/58/14
f 66/61/26 65/60/26 77/71/26 78/72/26
f 50/48/13 60/47/13 72/73/13 62/74/13
f 51/63/2 49/62/2 61/75/2 63/76/2
f 58/65/9 57/64/9 69/77/9 70/78/9
f 55/66/6 54/58/6 66/61/6 67/79/6
f 52/67/3 51/63/3 63/76/3 64/80/3
f 59/68/10 58/65/10 70/78/10 71/81/10
f 56/69/7 55/66/7 67/79/7 68/82/7
f 53/59/4 52/67/4 64/80/4 65/60/4
f 60/47/12 59/68/12 71/81/12 72/73/12
f 49/62/1 50/70/1 62/83/1 61/75/1
f 57/64/8 56/69/8 68/82/8 69/77/8
f 81/84/2 80/85/2 92/86/2 93/87/2
f 62/74/26 72/73/26 84/88/26 74/89/26
f 63/76/26 61/75/26 73/90/26 75/91/26
f 70/78/26 69/77/26 81/84/26 82/92/26
f 67/79/26 66/61/26 78/72/26 79/93/26
f 64/80/26 63/76/26 75/91/26 76/94/26
f 71/81/26 70/78/26 82/92/26 83/95/26
f 68/82/26 67/79/26 79/93/26 80/85/26
f 65/60/26 64/80/26 76/94/26 77/71/26
f 72/73/26 71/81/26 83/95/26 84/88/26
f 61/75/26 62/83/26 74/96/26 73/90/26
f 69/77/26 68/82/26 80/85/26 81/84/26
f 93/97/26 91/98/26 87/99/26
f 78/72/12 77/71/12 89/100/12 90/101/12
f 74/89/6 84/88/6 96/102/6 86/103/6
f 75/91/8 73/90/8 85/104/8 87/105/8
f 82/92/3 81/84/3 93/87/3 94/106/3
f 79/93/13 78/72/13 90/101/13 91/107/13
f 76/94/9 75/91/9 87/105/9 88/108/9
f 83/95/4 82/92/4 94/106/4 95/109/4
f 80/85/1 79/93/1 91/107/1 92/86/1
f 77/71/10 76/94/10 88/108/10 89/100/10
f 84/88/5 83/95/5 95/109/5 96/102/5
f 73/90/7 74/96/7 86/110/7 85/104/7
f 87/99/26 85/111/26 86/112/26
f 86/112/26 96/113/26 95/114/26
f 95/114/26 94/115/26 93/97/26
f 93/97/26 92/116/26 91/98/26
f 91/98/26 90/117/26 87/99/26
f 90/117/26 89/118/26 87/99/26
f 89/118/26 88/119/26 87/99/26
f 87/99/26 86/112/26 95/114/26
f 95/114/26 93/97/26 87/99/26
f 23/120/14 1/121/14 3/122/14
f 3/122/14 5/123/14 7/29/14
f 7/29/14 9/124/14 11/30/14
f 11/30/14 13/125/14 15/31/14
f 15/31/14 17/126/14 19/127/14
f 19/127/14 21/128/14 15/31/14
f 21/128/14 23/120/14 15/31/14
f 23/120/14 3/122/14 15/31/14
f 3/122/14 7/29/14 15/31/14
